HIERARCHY
ROOT Hips
{
	OFFSET 0.000000 0.000000 0.000000
	CHANNELS 6 Xposition Yposition Zposition Zrotation Yrotation Xrotation 
	JOINT LHipJoint
	{
		OFFSET 0.000000 0.000000 0.000000
		CHANNELS 3 Zrotation Yrotation Xrotation
		JOINT LeftUpLeg
		{
			OFFSET 1.363060 -1.794630 0.839290
			CHANNELS 3 Zrotation Yrotation Xrotation
			JOINT LeftLeg
			{
				OFFSET 2.448110 -6.726130 0.000000
				CHANNELS 3 Zrotation Yrotation Xrotation
				JOINT LeftFoot
				{
					OFFSET 2.562200 -7.039590 0.000000
					CHANNELS 3 Zrotation Yrotation Xrotation
					JOINT LeftToeBase
					{
						OFFSET 0.157640 -0.433110 2.322550
						CHANNELS 3 Zrotation Yrotation Xrotation
						End Site
						{
							OFFSET 0.000000 0.000000 0.000000
						}
					}
				}
			}
		}
	}
	JOINT RHipJoint
	{
		OFFSET 0.000000 0.000000 0.000000
		CHANNELS 3 Zrotation Yrotation Xrotation
		JOINT RightUpLeg
		{
			OFFSET -1.305520 -1.794630 0.839290
			CHANNELS 3 Zrotation Yrotation Xrotation
			JOINT RightLeg
			{
				OFFSET -2.542530 -6.985550 0.000000
				CHANNELS 3 Zrotation Yrotation Xrotation
				JOINT RightFoot
				{
					OFFSET -2.568260 -7.056230 0.000000
					CHANNELS 3 Zrotation Yrotation Xrotation
					JOINT RightToeBase
					{
						OFFSET -0.164730 -0.452590 2.363150
						CHANNELS 3 Zrotation Yrotation Xrotation
						End Site
						{
							OFFSET 0.000000 0.000000 0.000000
						}
					}
				}
			}
		}
	}
	JOINT LowerBack
	{
		OFFSET 0.000000 0.000000 0.000000
		CHANNELS 3 Zrotation Yrotation Xrotation
		JOINT Spine
		{
			OFFSET 0.028270 2.035590 -0.193380
			CHANNELS 3 Zrotation Yrotation Xrotation
			JOINT Spine1
			{
				OFFSET 0.056720 2.048850 -0.042750
				CHANNELS 3 Zrotation Yrotation Xrotation
				JOINT Neck
				{
					OFFSET 0.000000 0.000000 0.000000
					CHANNELS 3 Zrotation Yrotation Xrotation
					JOINT Neck1
					{
						OFFSET -0.054170 1.746240 0.172020
						CHANNELS 3 Zrotation Yrotation Xrotation
						JOINT Head
						{
							OFFSET 0.104070 1.761360 -0.123970
							CHANNELS 3 Zrotation Yrotation Xrotation
							End Site
							{
								OFFSET 0.000000 0.000000 0.000000
							}
						}
					}
				}
				JOINT LeftShoulder
				{
					OFFSET 0.000000 0.000000 0.000000
					CHANNELS 3 Zrotation Yrotation Xrotation
					JOINT LeftArm
					{
						OFFSET 3.362410 1.200890 -0.311210
						CHANNELS 3 Zrotation Yrotation Xrotation
						JOINT LeftForeArm
						{
							OFFSET 4.983000 -0.000000 -0.000000
							CHANNELS 3 Zrotation Yrotation Xrotation
							JOINT LeftHand
							{
								OFFSET 3.483560 -0.000000 -0.000000
								CHANNELS 3 Zrotation Yrotation Xrotation
								JOINT LeftFingerBase
								{
									OFFSET 0.000000 0.000000 0.000000
									CHANNELS 3 Zrotation Yrotation Xrotation
									JOINT LeftHandIndex1
									{
										OFFSET 0.715260 -0.000000 -0.000000
										CHANNELS 3 Zrotation Yrotation Xrotation
										End Site
										{
											OFFSET 0.000000 0.000000 0.000000
										}
									}
								}
								JOINT LThumb
								{
									OFFSET 0.000000 0.000000 0.000000
									CHANNELS 3 Zrotation Yrotation Xrotation
									End Site
									{
										OFFSET 0.000000 0.000000 0.000000
									}
								}
							}
						}
					}
				}
				JOINT RightShoulder
				{
					OFFSET 0.000000 0.000000 0.000000
					CHANNELS 3 Zrotation Yrotation Xrotation
					JOINT RightArm
					{
						OFFSET -3.136600 1.374050 -0.404650
						CHANNELS 3 Zrotation Yrotation Xrotation
						JOINT RightForeArm
						{
							OFFSET -5.241900 -0.000000 -0.000000
							CHANNELS 3 Zrotation Yrotation Xrotation
							JOINT RightHand
							{
								OFFSET -3.444170 -0.000000 -0.000000
								CHANNELS 3 Zrotation Yrotation Xrotation
								JOINT RightFingerBase
								{
									OFFSET 0.000000 0.000000 0.000000
									CHANNELS 3 Zrotation Yrotation Xrotation
									JOINT RightHandIndex1
									{
										OFFSET -0.622530 -0.000000 -0.000000
										CHANNELS 3 Zrotation Yrotation Xrotation
										End Site
										{
											OFFSET 0.000000 0.000000 0.000000
										}
									}
								}
								JOINT RThumb
								{
									OFFSET 0.000000 0.000000 0.000000
									CHANNELS 3 Zrotation Yrotation Xrotation
									End Site
									{
										OFFSET 0.000000 0.000000 0.000000
									}
								}
							}
						}
					}
				}
			}
		}
	}
}
MOTION
Frames: 5
Frame Time: 0.008333
12.527420 17.744709 -0.504932 57.959845 81.554616 53.634609 1.762783 -2.404260 -1.146155 -27.495022 -1.775675 5.198535 -1.622815 5.853009 13.666086 -0.034735 3.866633 -10.695572 0.000100 -0.056000 -0.153900 -4.735569 3.382059 -4.978438 15.399860 -2.596783 -7.617667 -9.135610 -18.784286 57.466349 -0.415681 3.638857 -10.301411 -0.018600 -0.880700 2.420600 -10.285984 2.114348 16.423070 -0.807040 2.059059 -1.112598 -2.072801 0.962383 2.641461 0.594594 0.744196 -20.530583 6.225042 0.692051 10.343408 -0.392800 1.086800 12.302800 6.249800 -0.700549 -0.144941 -85.399409 -4.142476 40.513116 20.217770 -31.826752 -6.346184 -0.685103 0.484051 -12.341789 26.102147 -20.579980 -10.278100 -7.125000 0.000000 0.000000 -1.252400 6.559800 1.101400 -6.741749 2.079393 1.926500 88.549583 -2.341027 30.561800 -18.293007 32.767606 -4.928552 0.228583 -2.612613 -5.192185 -19.556691 -28.671431 8.830700 7.125000 0.000000 0.000000 11.275700 -56.866100 -3.307800 
12.807983 17.787675 -0.496626 59.447163 81.350995 54.975564 1.848420 -2.326333 -1.169492 -28.127521 -1.346026 7.090826 -1.716521 5.327299 12.304646 -0.025544 3.881754 -10.842612 0.000300 0.109700 0.301300 -4.791407 3.271994 -4.847554 15.280054 -1.801810 -8.980184 -8.640642 -18.426322 55.666322 -0.397496 2.846913 -10.571583 -0.060400 -1.586200 4.363300 -10.745754 2.076713 16.435298 -0.790257 1.932381 -1.135346 -1.752302 0.884370 2.576486 0.757975 0.851933 -20.751733 6.229276 0.806913 10.555543 -0.418400 1.171100 12.509200 6.291211 -0.744226 -0.177903 -85.010862 -5.369610 42.522180 21.967621 -33.713931 -7.285942 -0.670422 0.480589 -13.527190 25.680597 -20.752621 -10.163400 -7.125000 0.000000 0.000000 -1.556500 6.447700 1.372400 -6.736982 2.152243 1.944436 87.779618 -3.307942 30.195471 -17.546160 31.797371 -4.624233 0.290214 -2.612548 -5.917147 -18.558702 -29.513876 8.617100 7.125000 0.000000 0.000000 12.744300 -57.505400 -3.945400 
13.080138 17.815875 -0.488115 61.747316 81.156235 57.257869 1.930654 -2.257486 -1.202171 -28.714600 -0.853144 8.634293 -1.780516 4.880398 11.141768 0.015533 3.617906 -10.968826 0.000000 -0.004500 -0.012500 -4.825569 3.167382 -4.706486 14.986489 -1.097753 -10.458981 -8.139922 -18.022052 53.783135 -0.393120 2.146422 -11.073633 -0.076500 -1.784200 4.909700 -11.294049 1.970520 16.370750 -0.766048 1.716888 -1.145050 -1.289448 0.748894 2.593092 0.660324 0.882910 -20.904877 6.392280 0.906271 10.641254 -0.298400 1.233400 12.601000 6.305013 -0.773004 -0.207734 -84.668532 -6.745211 44.162408 23.832612 -35.618456 -8.341195 -0.652751 0.482826 -14.276205 25.227633 -20.957494 -10.047200 -7.125000 0.000000 0.000000 -1.883000 6.306700 1.665700 -6.711484 2.223993 1.976560 86.792132 -4.440743 30.133215 -17.273206 31.307858 -4.489386 0.352451 -2.578763 -6.381802 -17.669302 -29.945829 8.334800 7.125000 0.000000 0.000000 13.900100 -57.783300 -4.405800 
13.353626 17.826745 -0.483090 64.978057 80.865871 60.516212 2.015264 -2.198049 -1.245443 -29.424636 -0.231669 9.968305 -1.820676 4.505802 10.149649 0.085307 3.091155 -11.085230 0.000800 -0.183000 -0.502800 -4.819544 3.073110 -4.557748 14.384268 -0.488271 -12.006087 -7.656297 -17.574524 51.882649 -0.419957 1.800303 -12.023327 -0.031300 -1.142200 3.140200 -11.919521 1.809524 16.258365 -0.757919 1.428574 -1.141997 -0.842629 0.578641 2.691347 0.574180 0.966931 -21.083660 6.449060 1.067879 10.685900 -0.236200 1.305300 12.665300 6.308685 -0.805265 -0.230220 -84.183807 -8.209475 45.773746 25.792216 -37.503993 -9.504778 -0.647482 0.488726 -14.953338 25.204166 -21.368935 -10.214100 -7.125000 0.000000 0.000000 -1.956100 5.859100 1.747300 -6.655172 2.277204 2.015004 85.650101 -5.703887 30.403876 -17.357110 31.193234 -4.476758 0.393962 -2.517175 -6.658508 -17.151085 -29.787452 8.070000 7.125000 0.000000 0.000000 14.354400 -57.583300 -4.484200 
13.627729 17.824386 -0.477552 68.035527 80.497519 63.626990 2.094997 -2.148584 -1.296765 -30.135372 0.385359 11.232189 -1.850558 4.152799 9.213887 0.154895 2.532948 -11.189907 -0.000000 0.002300 0.006400 -4.810550 2.973724 -4.404884 13.703927 0.157089 -13.485525 -7.157539 -17.077727 49.854224 -0.453897 1.421851 -13.022721 -0.006800 -0.530700 1.458200 -12.576662 1.671727 16.100582 -0.766013 1.174188 -1.138017 -0.466406 0.430059 2.814642 0.638475 1.124045 -21.322406 6.399743 1.271434 10.715260 -0.264700 1.394800 12.738100 6.311605 -0.843623 -0.245861 -83.453055 -9.775402 47.479058 27.748698 -39.267645 -10.714926 -0.652153 0.493273 -15.415623 25.587597 -21.686777 -10.528900 -7.125000 0.000000 0.000000 -1.756800 5.434600 1.583300 -6.578722 2.316644 2.051494 84.496606 -6.986026 30.959304 -17.618712 31.275815 -4.526058 0.431057 -2.452142 -6.786632 -16.693907 -29.534864 7.814700 7.125000 0.000000 0.000000 14.686000 -57.308700 -4.492900 
